<?xml version="1.0" encoding="UTF-8" standalone="no"?>
<!-- Created with Inkscape (http://www.inkscape.org/) -->

<svg
   xmlns:dc="http://purl.org/dc/elements/1.1/"
   xmlns:cc="http://creativecommons.org/ns#"
   xmlns:rdf="http://www.w3.org/1999/02/22-rdf-syntax-ns#"
   xmlns:svg="http://www.w3.org/2000/svg"
   xmlns="http://www.w3.org/2000/svg"
   xmlns:sodipodi="http://sodipodi.sourceforge.net/DTD/sodipodi-0.dtd"
   xmlns:inkscape="http://www.inkscape.org/namespaces/inkscape"
   width="210mm"
   height="297mm"
   viewBox="0 0 744.09448819 1052.3622047"
   id="svg2"
   version="1.1"
   inkscape:version="0.91 r13725"
   sodipodi:docname="nl_graph.svg">
  <defs
     id="defs4">
    <marker
       inkscape:stockid="Arrow1Lend"
       orient="auto"
       refY="0.0"
       refX="0.0"
       id="Arrow1Lend"
       style="overflow:visible;"
       inkscape:isstock="true">
      <path
         id="path4151"
         d="M 0.0,0.0 L 5.0,-5.0 L -12.5,0.0 L 5.0,5.0 L 0.0,0.0 z "
         style="fill-rule:evenodd;stroke:#000000;stroke-width:1pt;stroke-opacity:1;fill:#000000;fill-opacity:1"
         transform="scale(0.8) rotate(180) translate(12.5,0)" />
    </marker>
    <marker
       inkscape:stockid="Arrow1Lstart"
       orient="auto"
       refY="0.0"
       refX="0.0"
       id="Arrow1Lstart"
       style="overflow:visible"
       inkscape:isstock="true">
      <path
         id="path4148"
         d="M 0.0,0.0 L 5.0,-5.0 L -12.5,0.0 L 5.0,5.0 L 0.0,0.0 z "
         style="fill-rule:evenodd;stroke:#000000;stroke-width:1pt;stroke-opacity:1;fill:#000000;fill-opacity:1"
         transform="scale(0.8) translate(12.5,0)" />
    </marker>
  </defs>
  <sodipodi:namedview
     id="base"
     pagecolor="#ffffff"
     bordercolor="#666666"
     borderopacity="1.0"
     inkscape:pageopacity="0.0"
     inkscape:pageshadow="2"
     inkscape:zoom="2.8"
     inkscape:cx="509.1596"
     inkscape:cy="830.99791"
     inkscape:document-units="px"
     inkscape:current-layer="layer1"
     showgrid="false"
     inkscape:window-width="1920"
     inkscape:window-height="1125"
     inkscape:window-x="-9"
     inkscape:window-y="-9"
     inkscape:window-maximized="1" />
  <metadata
     id="metadata7">
    <rdf:RDF>
      <cc:Work
         rdf:about="">
        <dc:format>image/svg+xml</dc:format>
        <dc:type
           rdf:resource="http://purl.org/dc/dcmitype/StillImage" />
        <dc:title />
      </cc:Work>
    </rdf:RDF>
  </metadata>
  <g
     inkscape:label="Layer 1"
     inkscape:groupmode="layer"
     id="layer1">
    <path
       style="fill:none;fill-rule:evenodd;stroke:#000000;stroke-width:1px;stroke-linecap:butt;stroke-linejoin:miter;stroke-opacity:1;marker-start:url(#Arrow1Lstart)"
       d="m 337.89603,97.768049 0,278.297031"
       id="path4136"
       inkscape:connector-curvature="0" />
    <path
       style="fill:none;fill-rule:evenodd;stroke:#000000;stroke-width:1px;stroke-linecap:butt;stroke-linejoin:miter;stroke-opacity:1;marker-end:url(#Arrow1Lend)"
       d="m 161.11933,240.19956 c 4.8816,2.81839 376.7869,0 376.7869,0"
       id="path4138"
       inkscape:connector-curvature="0" />
    <path
       style="fill:none;fill-rule:evenodd;stroke:#000000;stroke-width:1px;stroke-linecap:butt;stroke-linejoin:miter;stroke-opacity:1"
       d="M 291.93409,369.49908 388.40365,102.31374"
       id="path4140"
       inkscape:connector-curvature="0" />
    <path
       style="fill:none;fill-rule:evenodd;stroke:#000000;stroke-width:1px;stroke-linecap:butt;stroke-linejoin:miter;stroke-opacity:1"
       d="M 204.05081,318.48638 471.23616,164.43812"
       id="path4142"
       inkscape:connector-curvature="0" />
    <path
       style="fill:none;fill-rule:evenodd;stroke:#ff0000;stroke-width:1.5;stroke-linecap:butt;stroke-linejoin:miter;stroke-opacity:1;stroke-miterlimit:4;stroke-dasharray:none"
       d="m 259.28571,353.79078 c -0.11904,-0.59524 -0.25734,-1.18695 -0.35714,-1.78572 -0.0391,-0.23485 0,-0.47619 0,-0.71428 0,-0.59524 0,-1.19048 0,-1.78572 0,-1.54762 0,-3.09524 0,-4.64286 0,-4.7619 0,-9.52381 0,-14.28571 0,-1.78571 0,-3.57143 0,-5.35714 0,-0.24187 -0.0542,-2.3373 0,-2.5 0.0532,-0.15972 0.3039,-0.19743 0.35714,-0.35715 0.0753,-0.22587 -0.0753,-0.48841 0,-0.71428 0.0532,-0.15972 0.30391,-0.19743 0.35715,-0.35715 0.0753,-0.22587 -0.0467,-0.48081 0,-0.71428 0.0738,-0.36915 0.28331,-0.70228 0.35714,-1.07143 0.0467,-0.23347 -0.13207,-0.51618 0,-0.71429 0.14766,-0.22149 0.55457,-0.14418 0.71429,-0.35714 1.10671,-1.47562 -0.24683,-0.63294 0.35714,-2.14286 0.12505,-0.31263 0.47619,-0.47619 0.71428,-0.71428 0.11905,-0.11905 0.30391,-0.19742 0.35715,-0.35714 0.0753,-0.22588 -0.0577,-0.4833 0,-0.71429 0.12912,-0.5165 0.51656,-0.93425 0.71428,-1.42857 0.13982,-0.34954 0.18879,-0.73471 0.35715,-1.07143 0.15058,-0.30117 0.5275,-0.43412 0.71428,-0.71429 0.14766,-0.22149 0.20948,-0.49279 0.35714,-0.71428 0.0934,-0.14008 0.30391,-0.19742 0.35715,-0.35714 0.0753,-0.22588 -0.10648,-0.50133 0,-0.71429 0.0532,-0.10648 0.25066,0.0532 0.35714,0 0.15059,-0.0753 0.28185,-0.20656 0.35714,-0.35714 0.0532,-0.10648 -0.0532,-0.25067 0,-0.35715 0.0753,-0.15058 0.28185,-0.20655 0.35715,-0.35714 0.17857,-0.35714 -0.35715,-0.71428 0,-1.07143 0.26619,-0.2662 0.75819,-0.14832 1.07142,-0.35714 0.0991,-0.066 -0.0532,-0.25066 0,-0.35714 0.0753,-0.15059 0.2381,-0.2381 0.35715,-0.35715 0.11905,-0.11904 0.23809,-0.23809 0.35714,-0.35714 0.39824,-0.39823 1.55047,-1.43284 1.78571,-1.78571 0.066,-0.0991 -0.0532,-0.25067 0,-0.35715 0.0753,-0.15058 0.2381,-0.23809 0.35715,-0.35714 0.23809,-0.23809 0.43412,-0.52751 0.71428,-0.71428 0.0991,-0.066 0.25067,0.0532 0.35715,0 0.15058,-0.0753 0.20655,-0.28185 0.35714,-0.35715 0.10648,-0.0532 0.27296,0.0842 0.35714,0 0.18823,-0.18823 0.13565,-0.56662 0.35714,-0.71428 0.19811,-0.13207 0.51618,0.13207 0.71429,0 0.22149,-0.14766 0.16891,-0.52606 0.35714,-0.71429 0.18823,-0.18823 0.4928,-0.20948 0.71429,-0.35714 0.28016,-0.18678 0.39485,-0.60781 0.71428,-0.71429 0.22588,-0.0753 0.48841,0.0753 0.71429,0 0.31944,-0.10648 0.43412,-0.5275 0.71429,-0.71428 0.44298,-0.29532 0.98559,-0.41897 1.42857,-0.71429 0.28016,-0.18678 0.41311,-0.5637 0.71428,-0.71428 0.33672,-0.16836 0.74862,-0.16346 1.07143,-0.35715 0.28873,-0.17324 0.41312,-0.5637 0.71429,-0.71428 0.21296,-0.10648 0.49322,0.0884 0.71428,0 0.39854,-0.15942 0.68751,-0.52233 1.07143,-0.71429 0.10648,-0.0532 0.25809,0.066 0.35714,0 0.28017,-0.18678 0.44492,-0.51225 0.71429,-0.71428 0.21296,-0.15972 0.46175,-0.27297 0.71429,-0.35715 0.11293,-0.0376 0.27296,0.0842 0.35714,0 0.18823,-0.18823 0.14418,-0.55456 0.35714,-0.71428 2.0486,-0.68287 0.21694,0.10515 1.78572,-1.07143 0.21296,-0.15972 0.47619,-0.2381 0.71428,-0.35714 0.2381,-0.11905 0.46175,-0.27297 0.71429,-0.35715 0.11294,-0.0376 0.25066,0.0532 0.35714,0 0.15059,-0.0753 0.19742,-0.3039 0.35714,-0.35714 0.22588,-0.0753 0.50133,0.10648 0.71429,0 0.68844,-0.68844 0.58236,-0.73294 1.42857,-1.07143 3.55348,-1.18449 -0.84179,0.33672 1.78571,-0.71428 0.34954,-0.13982 0.73472,-0.18879 1.07143,-0.35715 0.15059,-0.0753 0.22246,-0.25612 0.35715,-0.35714 0.34338,-0.25754 0.70336,-0.49345 1.07142,-0.71429 0.22827,-0.13695 0.46175,-0.27296 0.71429,-0.35714 0.11294,-0.0376 0.25809,0.066 0.35714,0 0.28017,-0.18678 0.44492,-0.51225 0.71429,-0.71428 0.42592,-0.31944 1.00265,-0.39485 1.42857,-0.71429 0.26937,-0.20203 0.41312,-0.5637 0.71429,-0.71429 0.21296,-0.10647 0.50132,0.10648 0.71428,0 0.42857,-0.21428 0.64286,-0.85714 1.07143,-1.07142 0.10648,-0.0532 0.25066,0.0532 0.35714,0 0.15059,-0.0753 0.19743,-0.30391 0.35715,-0.35715 0.22587,-0.0753 0.4884,0.0753 0.71428,0 0.24184,-0.0806 0.79861,-0.93502 1.07143,-1.07143 0.10648,-0.0532 0.2442,0.0376 0.35714,0 0.25254,-0.0842 0.46175,-0.27296 0.71429,-0.35714 0.11294,-0.0376 0.27296,0.0842 0.35714,0 0.18823,-0.18823 0.16891,-0.52605 0.35714,-0.71428 0.0842,-0.0842 0.2381,0 0.35715,0 0.23809,-0.11905 0.52605,-0.16892 0.71428,-0.35715 0.0842,-0.0842 -0.0991,-0.2911 0,-0.35714 0.31324,-0.20882 0.73471,-0.18878 1.07143,-0.35714 0.15059,-0.0753 0.19743,-0.30391 0.35714,-0.35715 0.22588,-0.0753 0.50133,0.10648 0.71429,0 0.10648,-0.0532 -0.0842,-0.27296 0,-0.35714 0.18823,-0.18823 0.50133,-0.19742 0.71429,-0.35714 0.26937,-0.20203 0.47619,-0.47619 0.71428,-0.71429 0.2381,-0.23809 0.47619,-0.47619 0.71429,-0.71428 0.23809,-0.2381 0.41311,-0.5637 0.71428,-0.71429 0.43903,-0.21951 1.02017,-0.0849 1.42857,-0.35714 0.35715,-0.2381 0.38455,-0.79664 0.71429,-1.07143 0.409,-0.34083 0.98559,-0.41896 1.42857,-0.71429 0.28017,-0.18677 0.41312,-0.5637 0.71429,-0.71428 0.21296,-0.10648 0.52381,0.14286 0.71428,0 0.34339,-0.25754 0.41078,-0.76792 0.71429,-1.07143 0.37646,-0.37646 1.00265,-0.39485 1.42857,-0.71429 0.01,-0.007 1.3425,-1.25643 1.42857,-1.42857 0.0532,-0.10648 -0.0842,-0.27296 0,-0.35714 0.18823,-0.18823 0.56663,-0.13565 0.71429,-0.35714 0.13207,-0.19811 -0.10648,-0.50133 0,-0.71429 0.0532,-0.10648 0.25066,0.0532 0.35714,0 0.15059,-0.0753 0.25613,-0.22245 0.35714,-0.35714 0.25754,-0.34339 0.45675,-0.72804 0.71429,-1.07143 0.10101,-0.13469 0.26375,-0.21706 0.35714,-0.35714 0.14766,-0.22149 0.20948,-0.4928 0.35714,-0.71429 0.0934,-0.14008 0.26376,-0.21706 0.35715,-0.35714 0.14766,-0.22149 0.16891,-0.52606 0.35714,-0.71429 0.18823,-0.18823 0.56663,-0.13565 0.71429,-0.35714 0.13207,-0.19811 -0.10648,-0.50133 0,-0.71429 0.0532,-0.10647 0.3039,0.10648 0.35714,0 0.56581,-1.13161 -0.73907,-0.33235 0.35714,-1.42857 0.18823,-0.18823 0.52606,-0.16891 0.71429,-0.35714 0.002,-0.002 -0.003,-1.05949 0,-1.07143 0.0646,-0.25825 0.27296,-0.46175 0.35714,-0.71428 0.0376,-0.11294 -0.0376,-0.24421 0,-0.35715 0.86231,-2.58693 -0.10297,0.56308 0.71429,-1.07143 0.16835,-0.33671 0.18878,-0.73471 0.35714,-1.07142 0.0753,-0.15059 0.28185,-0.20656 0.35714,-0.35715 0.16836,-0.33671 0.18879,-0.73471 0.35714,-1.07143 0.0753,-0.15058 0.30391,-0.19742 0.35715,-0.35714 0.0753,-0.22587 -0.0577,-0.4833 0,-0.71428 0.0646,-0.25825 0.25828,-0.46713 0.35714,-0.71429 0.13981,-0.34954 0.18878,-0.73471 0.35714,-1.07143 0.15059,-0.30117 0.5637,-0.41311 0.71429,-0.71428 0.0532,-0.10648 -0.0532,-0.25067 0,-0.35715 0.19196,-0.38391 0.49345,-0.70336 0.71428,-1.07143 0.13696,-0.22826 0.20949,-0.49279 0.35715,-0.71428 0.0934,-0.14008 0.26375,-0.21706 0.35714,-0.35714 0.14766,-0.22149 0.27296,-0.46175 0.35714,-0.71429 0.0376,-0.11294 -0.0842,-0.27296 0,-0.35714 0.0842,-0.0842 0.27297,0.0842 0.35715,0 0.0842,-0.0842 -0.0532,-0.25067 0,-0.35715 1.68434,-3.36869 0.0669,0.0782 1.07142,-1.42857 0.14767,-0.22149 0.16892,-0.52605 0.35715,-0.71428 0.18823,-0.18823 0.52605,-0.16891 0.71428,-0.35715 0.0842,-0.0842 -0.0532,-0.25066 0,-0.35714 0.0753,-0.15058 0.28185,-0.20656 0.35715,-0.35714 0.0532,-0.10648 -0.0532,-0.25066 0,-0.35714 0.0753,-0.15059 0.26375,-0.21706 0.35714,-0.35715 0.14766,-0.22149 0.16891,-0.52605 0.35714,-0.71428 0.0842,-0.0842 0.27297,0.0842 0.35714,0 0.18824,-0.18823 0.19743,-0.50133 0.35715,-0.71429 0.20203,-0.26937 0.47619,-0.47619 0.71428,-0.71428 0.11905,-0.11905 0.30391,-0.19743 0.35715,-0.35715 0.0753,-0.22587 -0.13208,-0.51618 0,-0.71428 0.14766,-0.22149 0.55456,-0.14419 0.71428,-0.35715 0.22588,-0.30116 0.12197,-0.77746 0.35714,-1.07142 0.26814,-0.33518 0.76792,-0.41078 1.07143,-0.71429 0.16836,-0.16836 -0.10648,-0.50133 0,-0.71429 0.0753,-0.15058 0.2381,-0.23809 0.35715,-0.35714 0.23809,-0.23809 0.47619,-0.47619 0.71428,-0.71428 0.11905,-0.11905 0.26376,-0.21706 0.35714,-0.35715 0.14767,-0.22149 0.20949,-0.49279 0.35715,-0.71428 0.0934,-0.14009 0.28185,-0.20656 0.35714,-0.35715 0.16836,-0.33671 0.13127,-0.77025 0.35714,-1.07142 0.15972,-0.21296 0.55457,-0.14419 0.71429,-0.35715 0.22588,-0.30117 0.14832,-0.75819 0.35714,-1.07143 0.066,-0.0991 0.27297,0.0842 0.35714,0 1.00563,-0.0222 0.091,-0.80523 0.35715,-1.07142 0.18823,-0.18823 0.52605,-0.16892 0.71428,-0.35715 0.0842,-0.0842 -0.0532,-0.25066 0,-0.35714 0.0753,-0.15058 0.28185,-0.20656 0.35715,-0.35714 0.16836,-0.33672 0.16345,-0.74862 0.35714,-1.07143 0.17324,-0.28873 0.47619,-0.47619 0.71428,-0.71429 0.11905,-0.11904 0.32413,-0.19205 0.35715,-0.35714 0.0934,-0.46694 -0.17686,-0.98644 0,-1.42857 0.0989,-0.24716 0.52605,-0.16891 0.71428,-0.35714 0.18823,-0.18823 0.20949,-0.4928 0.35715,-0.71429 0.0934,-0.14008 0.23809,-0.23809 0.35714,-0.35714 0.23809,-0.2381 0.52751,-0.43412 0.71428,-0.71429 0.13208,-0.19811 -0.10647,-0.50132 0,-0.71428 0.0753,-0.15059 0.30391,-0.19743 0.35715,-0.35715 0.0753,-0.22587 0,-0.47619 0,-0.71428 0,-0.11905 -0.066,-0.25809 0,-0.35715 0.20319,-0.48335 0.79126,-0.65117 1.07143,-1.07142 0.14766,-0.22149 0.23809,-0.47619 0.35714,-0.71429 0.11905,-0.23809 0.23809,-0.47619 0.35714,-0.71429 0.11905,-0.23809 0.29258,-0.45603 0.35714,-0.71428 0.0577,-0.23099 -0.0753,-0.48841 0,-0.71429 0.0532,-0.15972 0.30391,-0.19742 0.35715,-0.35714 0.45367,-1.36101 -0.79261,-0.0611 0.35714,-1.78571 0.066,-0.0991 0.27296,0.0842 0.35714,0 0.0842,-0.0842 0,-0.2381 0,-0.35715 0.11905,-0.23809 0.16892,-0.52605 0.35715,-0.71428 0.0842,-0.0842 0.27296,0.0842 0.35714,0 0.1955,-0.19551 0.86154,-1.79305 1.07143,-2.14286 -0.0349,-0.78985 0.74125,-0.9333 1.07143,-1.42857 0.14766,-0.22149 0.19742,-0.50133 0.35714,-0.71429 0.23809,-0.23809 0.47619,-0.47619 0.71428,-0.71428 0.11905,0 0.25809,0.066 0.35715,0 0.28016,-0.18678 0.47619,-0.47619 0.71428,-0.71429 0.2381,-0.23809 0.52751,-0.43412 0.71429,-0.71428 0.066,-0.0991 -0.0532,-0.25067 0,-0.35715 0.0753,-0.15058 0.23809,-0.23809 0.35714,-0.35714 0.2381,-0.23809 0.47619,-0.47619 0.71429,-0.71429 0.35714,-0.35714 0.71428,-0.71428 1.07143,-1.07142 0.11904,-0.11905 0.22245,-0.25613 0.35714,-0.35715 0.34338,-0.25754 0.76791,-0.41077 1.07143,-0.71428 0.18823,-0.18823 0.13565,-0.56663 0.35714,-0.71429 0.19811,-0.13207 0.51618,0.13207 0.71429,0 0.22149,-0.14766 0.16891,-0.52605 0.35714,-0.71428 0.0842,-0.0842 0.27296,0.0842 0.35714,0 0.0842,-0.0842 0,-0.2381 0,-0.35715 0.35714,-0.11904 0.7582,-0.14832 1.07143,-0.35714 0.099,-0.066 -0.0842,-0.27296 0,-0.35714 0.0842,-0.0842 0.24165,0.0289 0.35714,0 0.36522,-0.0913 0.77026,-0.13127 1.07143,-0.35715 0.21296,-0.15971 0.16891,-0.52605 0.35714,-0.71428 0.0842,-0.0842 0.25067,0.0532 0.35715,0 0.15058,-0.0753 0.20656,-0.28185 0.35714,-0.35714 0.10648,-0.0532 0.27296,0.0842 0.35714,0 0.73894,-0.73895 -1.1292,0.0289 0.35715,-0.71429 0.21296,-0.10648 0.54592,0.16836 0.71428,0 0.0842,-0.0842 -0.0842,-0.27296 0,-0.35714 0.16836,-0.16836 0.50133,0.10648 0.71429,0 0.15058,-0.0753 0.20656,-0.28185 0.35714,-0.35715 0.10648,-0.0532 0.27296,0.0842 0.35714,0 0.0842,-0.0842 -0.10648,-0.3039 0,-0.35714 0.21296,-0.10648 0.49322,0.0884 0.71429,0 0.39853,-0.15941 0.68751,-0.52233 1.07143,-0.71428 0.10648,-0.0532 0.25066,0.0532 0.35714,0 0.27282,-0.13641 0.82959,-0.99082 1.07143,-1.07143 0.22588,-0.0753 0.47619,0 0.71428,0 0.2381,-0.2381 0.43412,-0.52751 0.71429,-0.71429 0.19811,-0.13207 0.50133,0.10648 0.71429,0 0.15058,-0.0753 0.20655,-0.28185 0.35714,-0.35714 0.10648,-0.0532 0.2442,0.0376 0.35714,0 0.25254,-0.0842 0.45604,-0.29258 0.71429,-0.35714 0.46197,-0.1155 1.00265,0.21296 1.42857,0 0.10648,-0.0532 -0.0842,-0.27297 0,-0.35715 0.0796,-0.0796 1.57332,0.0708 1.78571,0 0.15972,-0.0532 0.2381,-0.23809 0.35715,-0.35714 0.23809,-0.11905 0.46174,-0.27296 0.71428,-0.35714 0.22588,-0.0753 0.50133,0.10648 0.71429,0 0.15058,-0.0753 0.20656,-0.28185 0.35714,-0.35715 0.10648,-0.0532 0.2442,0.0376 0.35714,0 0.25254,-0.0842 0.45604,-0.29258 0.71429,-0.35714 0.23099,-0.0577 0.48081,0.0467 0.71428,0 0.36916,-0.0738 0.70621,-0.26584 1.07143,-0.35714 0.28572,-0.0714 0.85715,0.14286 1.07143,0 0.22149,-0.14766 0.11905,-0.59524 0.35714,-0.71429 0.0881,-0.044 1.93537,0.0415 2.14286,0 0.26103,-0.0522 0.46175,-0.27296 0.71429,-0.35714 0.11294,-0.0376 0.25066,0.0532 0.35714,0 0.15059,-0.0753 0.20656,-0.28185 0.35714,-0.35714 0.10648,-0.0532 0.2381,0 0.35715,0 0.11904,-0.11905 0.20655,-0.28185 0.35714,-0.35715 0.10648,-0.0532 0.25066,0.0532 0.35714,0 1.08913,-0.54456 -0.65319,-0.28313 1.07143,-0.71428 0.23099,-0.0577 0.49322,0.0884 0.71429,0 0.39853,-0.15941 0.68751,-0.52233 1.07142,-0.71429 0.10648,-0.0532 0.25067,0.0532 0.35715,0 0.38391,-0.19196 0.70336,-0.49344 1.07143,-0.71428 0.22826,-0.13696 0.52605,-0.16891 0.71428,-0.35715 0.18823,-0.18823 0.14419,-0.55456 0.35714,-0.71428 0.30117,-0.22588 0.7219,-0.21733 1.07143,-0.35714 0.60959,0.12636 0.68752,-0.52233 1.07143,-0.71429 0.10648,-0.0532 0.25067,0.0532 0.35714,0 0.15059,-0.0753 0.22246,-0.25613 0.35715,-0.35714 0.34338,-0.25754 0.76791,-0.41078 1.07143,-0.71429 0.0842,-0.0842 0,-0.23809 0,-0.35714 0.11904,-0.11905 0.21706,-0.26376 0.35714,-0.35714 0.22149,-0.14766 0.49279,-0.20949 0.71428,-0.35715 0.14009,-0.0934 0.21706,-0.26375 0.35715,-0.35714 0.22149,-0.14766 0.49279,-0.20948 0.71428,-0.35714 0.14009,-0.0934 0.20656,-0.28185 0.35715,-0.35715 0.10648,-0.0532 0.27296,0.0842 0.35714,0 0.0842,-0.0842 -0.0842,-0.27296 0,-0.35714 0.0842,-0.0842 0.27296,0.0842 0.35714,0 0.0842,-0.0842 -0.0532,-0.25066 0,-0.35714 0.15059,-0.30117 0.60781,-0.39485 0.71429,-0.71429 0.0753,-0.22587 0,-0.47619 0,-0.71428 0,-0.11905 -0.0532,-0.25067 0,-0.35715 0.19196,-0.38391 0.52232,-0.68751 0.71428,-1.07142 0.0532,-0.10648 0,-0.2381 0,-0.35715 0,-0.23809 -0.0577,-0.4833 0,-0.71428 0.0646,-0.25825 0.2381,-0.47619 0.35715,-0.71429 0,-0.35714 -0.0866,-0.72495 0,-1.07143 0.0408,-0.16333 0.3039,-0.19742 0.35714,-0.35714 0.0753,-0.22588 -0.0577,-0.4833 0,-0.71429 0.0646,-0.25825 0.29258,-0.45603 0.35714,-0.71428 0.0866,-0.34648 -0.11294,-0.73261 0,-1.07143 0.0842,-0.25254 0.29258,-0.45603 0.35714,-0.71429 0.0577,-0.23098 0,-0.47619 0,-0.71428 0,-0.29907 -0.0679,-1.51412 0,-1.78572 0.0646,-0.25825 0.29259,-0.45603 0.35715,-0.71428 0.0866,-0.34648 -0.11294,-0.73261 0,-1.07143 0.0842,-0.25254 0.29258,-0.45603 0.35714,-0.71429 0.14041,-0.56163 -0.11373,-1.21708 0,-1.78571 0.0963,-0.48131 0.26088,-0.94726 0.35714,-1.42857 0.07,-0.35021 0,-0.71429 0,-1.07143 0,-0.59524 0,-1.19048 0,-1.78571 0,-1.66667 0,-3.33334 0,-5 0,-1.30953 0,-2.61905 0,-3.92858 0,-0.19934 -0.0545,-1.62222 0,-1.78571 0.0532,-0.15972 0.30391,-0.19742 0.35715,-0.35714 0.0773,-0.23185 0,-2.17558 0,-2.5 0,-0.11905 -0.0376,-0.24421 0,-0.35715 0.0842,-0.25253 0.27296,-0.46174 0.35714,-0.71428 0.0376,-0.11294 0,-0.2381 0,-0.35714 0,-0.68051 -0.0753,-1.13707 0.35714,-1.78572 0.066,-0.0991 0.30391,0.10648 0.35714,0 0.21296,-0.42592 -0.21295,-1.00265 0,-1.42857 0.0532,-0.10648 0.30391,0.10648 0.35715,0 0.0672,-0.13435 -0.013,-2.09087 0,-2.14286 0.0408,-0.16333 0.26375,-0.21706 0.35714,-0.35714 0.14766,-0.22149 0.27296,-0.46175 0.35714,-0.71429 0.0958,-0.28746 -0.11411,-1.20034 0,-1.42857 0.54457,-1.08913 0.28313,0.6532 0.71429,-1.07143 0.0577,-0.23098 -0.0577,-0.48329 0,-0.71428 0.0646,-0.25825 0.27296,-0.46175 0.35714,-0.71429 0.0377,-0.11294 -0.0532,-0.25066 0,-0.35714 0.0753,-0.15058 0.28185,-0.20656 0.35714,-0.35714 0.10648,-0.21296 -0.10647,-0.50133 0,-0.71429 1.1845,-1.18449 -0.16835,0.33672 0.35715,-0.71428 0.0753,-0.15059 0.28185,-0.20656 0.35714,-0.35715 0.0532,-0.10648 -0.0842,-0.27296 0,-0.35714 0.0842,-0.0842 0.3039,0.10648 0.35714,0 0.10648,-0.21296 -0.0577,-0.4833 0,-0.71429 0.0646,-0.25825 0.2381,-0.47619 0.35715,-0.71428 0.11904,-0.2381 0.20948,-0.4928 0.35714,-0.71429 0.18678,-0.28016 0.60781,-0.39484 0.71428,-0.71428 0.0753,-0.22588 -0.10647,-0.50133 0,-0.71429 0.15059,-0.30117 0.52751,-0.43412 0.71429,-0.71428 0.066,-0.0991 -0.0842,-0.27297 0,-0.35715 0.0842,-0.0842 0.27296,0.0842 0.35714,0 0.16836,-0.16836 -0.10648,-0.50132 0,-0.71428 0.0753,-0.15059 0.2381,-0.2381 0.35715,-0.35715 0.47619,-0.47619 0.95238,-0.95238 1.42857,-1.42857 0.11905,-0.11904 0.28185,-0.20655 0.35714,-0.35714 0.0532,-0.10648 -0.0532,-0.25066 0,-0.35714 0.15059,-0.30117 0.5637,-0.41312 0.71429,-0.71429 0.0532,-0.10648 -0.0842,-0.27296 0,-0.35714 0.47619,-0.47619 0.35714,0.59524 0.35714,-0.35714"
       id="path4462"
       inkscape:connector-curvature="0" />
    <text
       xml:space="preserve"
       style="font-style:normal;font-weight:normal;font-size:12px;line-height:125%;font-family:Sans;letter-spacing:0px;word-spacing:0px;fill:#000000;fill-opacity:1;stroke:none;stroke-width:1px;stroke-linecap:butt;stroke-linejoin:miter;stroke-opacity:1"
       x="520"
       y="258.07648"
       id="text4466"
       sodipodi:linespacing="125%"><tspan
         sodipodi:role="line"
         id="tspan4468"
         x="520"
         y="258.07648">$u$</tspan></text>
    <text
       xml:space="preserve"
       style="font-style:normal;font-weight:normal;font-size:12px;line-height:125%;font-family:Sans;letter-spacing:0px;word-spacing:0px;fill:#000000;fill-opacity:1;stroke:none;stroke-width:1px;stroke-linecap:butt;stroke-linejoin:miter;stroke-opacity:1"
       x="309.82434"
       y="112.7075"
       id="text4466-1"
       sodipodi:linespacing="125%"><tspan
         sodipodi:role="line"
         id="tspan4468-0"
         x="309.82434"
         y="112.7075">$x$</tspan></text>
    <text
       xml:space="preserve"
       style="font-style:normal;font-weight:normal;font-size:12px;line-height:125%;font-family:Sans;letter-spacing:0px;word-spacing:0px;fill:#000000;fill-opacity:1;stroke:none;stroke-width:1px;stroke-linecap:butt;stroke-linejoin:miter;stroke-opacity:1"
       x="413.75293"
       y="154.49319"
       id="text4466-9"
       sodipodi:linespacing="125%"><tspan
         sodipodi:role="line"
         id="tspan4468-1"
         x="413.75293"
         y="154.49319">$\textcolor{red}{\Phi(u)}$</tspan></text>
    <text
       xml:space="preserve"
       style="font-style:normal;font-weight:normal;font-size:12px;line-height:125%;font-family:Sans;letter-spacing:0px;word-spacing:0px;fill:#000000;fill-opacity:1;stroke:none;stroke-width:1px;stroke-linecap:butt;stroke-linejoin:miter;stroke-opacity:1"
       x="346.03027"
       y="148.42178"
       id="text4466-1-2"
       sodipodi:linespacing="125%"><tspan
         sodipodi:role="line"
         id="tspan4468-0-4"
         x="346.03027"
         y="148.42178">$k_2u$</tspan></text>
    <text
       xml:space="preserve"
       style="font-style:normal;font-weight:normal;font-size:12px;line-height:125%;font-family:Sans;letter-spacing:0px;word-spacing:0px;fill:#000000;fill-opacity:1;stroke:none;stroke-width:1px;stroke-linecap:butt;stroke-linejoin:miter;stroke-opacity:1"
       x="429.70438"
       y="201.63606"
       id="text4466-1-2-7"
       sodipodi:linespacing="125%"><tspan
         sodipodi:role="line"
         id="tspan4468-0-4-8"
         x="429.70438"
         y="201.63606">$k_1u$</tspan></text>
  </g>
</svg>
